<?xml version="1.0" encoding="utf-8"?>
<!-- Generator: Adobe Illustrator 26.2.1, SVG Export Plug-In . SVG Version: 6.00 Build 0)  -->
<svg version="1.1" id="Layer_1" xmlns:sketch="http://www.bohemiancoding.com/sketch/ns"
	 xmlns="http://www.w3.org/2000/svg" xmlns:xlink="http://www.w3.org/1999/xlink" x="0px" y="0px" viewBox="0 0 20 19"
	 style="enable-background:new 0 0 20 19;" xml:space="preserve">
<style type="text/css">
	.st0{fill:#fff;}
</style>
<desc></desc>
<path class="st0" d="M418.3,76.2h-23.4c-0.9,0-1.6-0.7-1.6-1.6V58.5c0-0.9,0.7-1.6,1.6-1.6h6.1l2.2-3.1h7.1l2.2,3.1h5.8
	c0.9,0,1.6,0.7,1.6,1.6v16.1C419.9,75.5,419.2,76.2,418.3,76.2z M394.9,58c-0.3,0-0.6,0.3-0.6,0.6v16.1c0,0.3,0.3,0.6,0.6,0.6h23.4
	c0.3,0,0.6-0.3,0.6-0.6V58.5c0-0.3-0.3-0.6-0.6-0.6H412l-2.2-3.1h-6.1l-2.2,3.1H394.9z"/>
<path class="st0" d="M406.6,72.2c-3.1,0-5.7-2.5-5.7-5.7s2.5-5.7,5.7-5.7s5.7,2.5,5.7,5.7S409.7,72.2,406.6,72.2z M406.6,61.9
	c-2.6,0-4.7,2.1-4.7,4.7s2.1,4.7,4.7,4.7s4.7-2.1,4.7-4.7S409.2,61.9,406.6,61.9z"/>
<g>
	<path class="st0" d="M18.3,17.6H1.7c-0.7,0-1.3-0.6-1.3-1.3V4.9c0-0.7,0.6-1.3,1.3-1.3H6l1.6-2.2h5.2l1.6,2.2h4
		c0.7,0,1.3,0.6,1.3,1.3v11.4C19.6,17,19,17.6,18.3,17.6z M1.7,4.7c-0.1,0-0.2,0.1-0.2,0.2v11.4c0,0.1,0.1,0.2,0.2,0.2h16.6
		c0.1,0,0.2-0.1,0.2-0.2V4.9c0-0.1-0.1-0.2-0.2-0.2h-4.5l-1.6-2.2H8.1L6.5,4.7H1.7z"/>
	<path class="st0" d="M10,14.8c-2.3,0-4.2-1.9-4.2-4.2S7.7,6.4,10,6.4s4.2,1.9,4.2,4.2S12.3,14.8,10,14.8z M10,7.5
		c-1.7,0-3.1,1.4-3.1,3.1s1.4,3.1,3.1,3.1s3.1-1.4,3.1-3.1S11.7,7.5,10,7.5z"/>
</g>
</svg>
