<?xml version="1.0" encoding="utf-8"?>
<svg version="1.1" id="Layer_1" xmlns="http://www.w3.org/2000/svg" xmlns:xlink="http://www.w3.org/1999/xlink" x="0px" y="0px"
	 viewBox="0 0 24.2 21.3" style="enable-background:new 0 0 24.2 21.3;" xml:space="preserve">
<style type="text/css">
	.st0{fill:#4B4B4B;}
</style>
<path class="st0" d="M18.5,17.5c-0.1,0-0.3,0-0.4-0.1L5.4,4.6c-0.2-0.2-0.2-0.5,0-0.7s0.5-0.2,0.7,0l12.7,12.7
	c0.2,0.2,0.2,0.5,0,0.7C18.7,17.5,18.6,17.5,18.5,17.5z"/>
<path class="st0" d="M5.8,17.5c-0.1,0-0.3,0-0.4-0.1c-0.2-0.2-0.2-0.5,0-0.7L18.1,3.9c0.2-0.2,0.5-0.2,0.7,0s0.2,0.5,0,0.7L6.1,17.4
	C6,17.5,5.9,17.5,5.8,17.5z"/>
<path class="st0" d="M378.7,348.1c-0.1,0-0.3,0-0.4-0.1l-12.7-12.7c-0.2-0.2-0.2-0.5,0-0.7s0.5-0.2,0.7,0l12.7,12.7
	c0.2,0.2,0.2,0.5,0,0.7C378.9,348.1,378.8,348.1,378.7,348.1z"/>
<path class="st0" d="M365.9,348.1c-0.1,0-0.3,0-0.4-0.1c-0.2-0.2-0.2-0.5,0-0.7l12.7-12.7c0.2-0.2,0.5-0.2,0.7,0s0.2,0.5,0,0.7
	L366.3,348C366.2,348.1,366.1,348.1,365.9,348.1z"/>
</svg>


