<?xml version="1.0" encoding="utf-8"?>
<!-- Generator: Adobe Illustrator 26.2.1, SVG Export Plug-In . SVG Version: 6.00 Build 0)  -->
<svg version="1.1" id="Layer_1" xmlns:sketch="http://www.bohemiancoding.com/sketch/ns"
	 xmlns="http://www.w3.org/2000/svg" xmlns:xlink="http://www.w3.org/1999/xlink" x="0px" y="0px" viewBox="0 0 20 19"
	 style="enable-background:new 0 0 20 19;" xml:space="preserve">
<style type="text/css">
	.st0{fill:#FFF;}
</style>
<desc></desc>
<g>
	<path class="st0" d="M16.9,17.4H3.1C2.5,17.4,2,17,2,16.4V2.8c0-0.7,0.6-1.3,1.3-1.3H8l1.7,2.4h7.2C17.5,3.9,18,4.4,18,5v11.3
		C18,17,17.5,17.4,16.9,17.4z M3.3,2.6C3.1,2.6,3,2.7,3,2.8v13.5c0,0,0,0.1,0.1,0.1h13.8c0,0,0.1,0,0.1-0.1V5c0,0,0-0.1-0.1-0.1H9.2
		L7.5,2.6H3.3z"/>
	<path d="M14,9.5H6.5C6.3,9.5,6,9.3,6,9s0.2-0.5,0.5-0.5H14c0.3,0,0.5,0.2,0.5,0.5S14.2,9.5,14,9.5z"/>
	<path d="M14,12.6H6.5c-0.3,0-0.5-0.2-0.5-0.5s0.2-0.5,0.5-0.5H14c0.3,0,0.5,0.2,0.5,0.5S14.2,12.6,14,12.6z"/>
</g>
</svg>
