<?xml version="1.0" encoding="utf-8"?>
<!-- Generator: Adobe Illustrator 26.2.1, SVG Export Plug-In . SVG Version: 6.00 Build 0)  -->
<svg version="1.1" id="Layer_1" xmlns:sketch="http://www.bohemiancoding.com/sketch/ns"
	 xmlns="http://www.w3.org/2000/svg" xmlns:xlink="http://www.w3.org/1999/xlink" x="0px" y="0px" viewBox="0 0 20 19"
	 style="enable-background:new 0 0 20 19;" xml:space="preserve">

<style type="text/css">
	.st0{fill:#FFFFFF;}
</style>
<desc></desc>
<path class="st0" d="M10,11.7c-0.3,0-0.5-0.2-0.5-0.5v-5C9.5,6,9.7,5.8,10,5.8s0.5,0.2,0.5,0.5v5C10.5,11.5,10.3,11.7,10,11.7z"/>
<path class="st0" d="M10,17.1c-4.2,0-7.6-3.4-7.6-7.6S5.8,1.9,10,1.9s7.6,3.4,7.6,7.6S14.2,17.1,10,17.1z M10,2.9c-3.6,0-6.6,2.9-6.6,6.6
	s2.9,6.6,6.6,6.6c3.6,0,6.6-2.9,6.6-6.6S13.6,2.9,10,2.9z"/>
<circle class="st0" cx="10" cy="13.3" r="0.5"/>
</svg>
