<svg viewBox="0 0 48 48" >
<path fill-rule="evenodd" clip-rule="evenodd" d="M43.7104 21.8549H25.99V4.09524C25.99 2.89796 24.9945 2 23.9005 2C22.8054 2 21.81 2.89796 21.81 4.09524V21.9546H4.0905C2.89593 21.8549 2 22.8526 2 23.9501C2 25.0476 2.89593 26.0454 4.0905 26.0454H21.9095V43.9048C21.9095 45.0023 22.8054 46 23.999 46C25.095 46 26.0905 45.102 26.0905 43.9048V26.0454H43.9085C45.0045 26.0454 46 25.1474 46 23.9501C45.8009 22.8526 44.904 21.8549 43.7104 21.8549C43.7104 21.8549 43.81 21.8549 43.7104 21.8549Z"/>
</svg>


