<?xml version="1.0" encoding="utf-8"?>
<!-- Generator: Adobe Illustrator 26.2.1, SVG Export Plug-In . SVG Version: 6.00 Build 0)  -->
<svg version="1.1" id="Layer_1" xmlns:sketch="http://www.bohemiancoding.com/sketch/ns"
	 xmlns="http://www.w3.org/2000/svg" xmlns:xlink="http://www.w3.org/1999/xlink" x="0px" y="0px" viewBox="0 0 20 19"
	 style="enable-background:new 0 0 20 19;" xml:space="preserve">
<desc></desc>
<g>
	<path d="M6.4,17.8l0-3.2H2.9c-0.9,0-1.6-0.7-1.6-1.6V3.8c0-0.9,0.7-1.6,1.6-1.6H17c0.9,0,1.6,0.7,1.6,1.6V13c0,0.9-0.7,1.6-1.6,1.6
		h-5.6L6.4,17.8z M2.9,3.2c-0.3,0-0.6,0.3-0.6,0.6V13c0,0.3,0.3,0.6,0.6,0.6h4.4v2.4l3.8-2.4H17c0.3,0,0.6-0.3,0.6-0.6V3.8
		c0-0.3-0.3-0.6-0.6-0.6H2.9z"/>
	<rect x="4.7" y="6.2" width="10.7" height="1"/>
	<rect x="4.7" y="9.2" width="10.7" height="1"/>
</g>
</svg>
