<?xml version="1.0" encoding="utf-8"?>
<!-- Generator: Adobe Illustrator 26.2.1, SVG Export Plug-In . SVG Version: 6.00 Build 0)  -->
<svg version="1.1" id="Layer_1" xmlns="http://www.w3.org/2000/svg" xmlns:xlink="http://www.w3.org/1999/xlink" x="0px" y="0px"
	 viewBox="0 0 24.2 21.3" style="enable-background:new 0 0 24.2 21.3;" xml:space="preserve">
<style type="text/css">
	.st0{fill:#FFFFFF;}
</style>
<g>
	<path class="st0" d="M11.1,17l0.4-3.9l5.8-6.9l1.1-0.3l2.4,2l-0.1,1.2L14.8,16L11.1,17z M12.4,13.5l-0.2,2.1l2.1-0.6l5.4-6.4l0-0.3
		L18.1,7l-0.3,0.1L12.4,13.5z"/>
	<rect x="17.3" y="7.1" transform="matrix(0.6644 -0.7474 0.7474 0.6644 -0.7127 16.2949)" class="st0" width="1" height="3.6"/>
	<path class="st0" d="M20.7,5.3H3.5C3.2,5.3,3,5.1,3,4.8s0.2-0.5,0.5-0.5h17.2c0.3,0,0.5,0.2,0.5,0.5S21,5.3,20.7,5.3z"/>
	<path class="st0" d="M12.6,9.2H3.5C3.2,9.2,3,9,3,8.7s0.2-0.5,0.5-0.5h9.1c0.3,0,0.5,0.2,0.5,0.5S12.9,9.2,12.6,9.2z"/>
	<path class="st0" d="M9.6,13.1H3.5c-0.3,0-0.5-0.2-0.5-0.5s0.2-0.5,0.5-0.5h6.1c0.3,0,0.5,0.2,0.5,0.5S9.9,13.1,9.6,13.1z"/>
	<path class="st0" d="M11.6,17H3.5C3.2,17,3,16.8,3,16.5S3.2,16,3.5,16h8.1c0.3,0,0.5,0.2,0.5,0.5S11.9,17,11.6,17z"/>
</g>
</svg>
