<?xml version="1.0" encoding="utf-8"?>
<!-- Generator: Adobe Illustrator 26.2.1, SVG Export Plug-In . SVG Version: 6.00 Build 0)  -->
<svg version="1.1" id="Layer_1" xmlns="http://www.w3.org/2000/svg" xmlns:xlink="http://www.w3.org/1999/xlink" x="0px" y="0px"
	 viewBox="0 0 68.7 16.7" style="enable-background:new 0 0 68.7 16.7;" xml:space="preserve">
<style type="text/css">
	.st0{fill:#00A0FF;}
	.st1{fill:#11111A;}
</style>
<g>
	<path class="st0" d="M10.2,3.2h1.9v10h-1.9v-1.1l-1.5,0.7l-1.3-2.6c-0.6,1.7-1.6,2.6-2.9,2.7v-2.1c1.1-0.2,1.8-3,1.8-7.5l1.9,0.1
		c0,1.5-0.1,2.9-0.2,4.1l2.1,4.1V8.2H9.1V6.3h1.1V3.2z M14.8,3.1v10.2h-1.9V3.1H14.8z"/>
	<path class="st0" d="M26.5,11.3h-4.1v2.3h-2.1v-2.3h-4.1V9.4h10.4V11.3z M25.9,8.6h-9.2V3.2h2v0.9H24V3.2h2V8.6z M24,6.9V5.9h-5.2
		v0.9H24z"/>
	<path class="st1" d="M35.5,7.5l3,4.2l-1.7,1.2l-2-3c-0.8,1.9-2.1,3-3.7,3v-2.1c1.6-0.2,2.7-3.2,2.7-7.5l2.1,0.1
		C35.9,4.9,35.7,6.3,35.5,7.5z M41.9,8.8h-1.2v4.5h-2V3.1h2v3.7h1.2V8.8z"/>
	<path class="st1" d="M42.7,8.7V6.9c1.3-0.1,2.2-1,2.4-2h-2.3V3.2h6.5v1.7h-2.2c0,0.2-0.1,0.4-0.1,0.6L49.8,7l-0.9,1.5L46.3,7
		C45.5,7.9,44.2,8.6,42.7,8.7z M52.3,11.2c0,1.7-2,2.3-4.6,2.3s-4.6-0.6-4.6-2.3s2-2.3,4.6-2.3S52.3,9.5,52.3,11.2z M50.2,11.2
		c0-0.5-1.1-0.7-2.4-0.7c-1.4,0-2.4,0.2-2.4,0.7c0,0.5,1.1,0.7,2.4,0.7C49.1,11.9,50.2,11.7,50.2,11.2z M53.4,4.7v1.9h-1.2v2.1h-2
		V3.1h2v1.6H53.4z"/>
	<path class="st1" d="M56.6,6.5h2.7c0.9,0,1.8-0.1,2.4-0.4v1.7c-0.5,0.2-1.4,0.4-2.4,0.4h-4.7v-5h2.1V6.5z M64.1,13.4h-9.2V8.9h9.2
		V13.4z M62,11.7v-1.1h-5.1v1.1H62z M64.1,8.5h-2V3.1h2V8.5z"/>
</g>
</svg>
